<svg xmlns="http://www.w3.org/2000/svg" viewBox="0 0 100 100">
  <defs>
    <linearGradient id="nx" gradientUnits="userSpaceOnUse" x1="18" y1="40" x2="92" y2="60"><stop offset="0" stop-color="#fff"/><stop offset=".35" stop-color="#e4dcff"/><stop offset=".7" stop-color="#b39dfa"/><stop offset="1" stop-color="#8b5cf6"/></linearGradient>
    <filter id="glow" x="-40%" y="-40%" width="180%" height="180%"><feGaussianBlur stdDeviation="3.2" result="b"/><feMerge><feMergeNode in="b"/><feMergeNode in="SourceGraphic"/></feMerge></filter>
    <linearGradient id="bg" x1="0" y1="0" x2="1" y2="1"><stop offset="0" stop-color="#1c1236"/><stop offset="1" stop-color="#0a0714"/></linearGradient>
    <radialGradient id="halo" cx=".55" cy=".45" r=".55"><stop offset="0" stop-color="#7c3aed" stop-opacity=".55"/><stop offset="1" stop-color="#7c3aed" stop-opacity="0"/></radialGradient>
  </defs>
  <rect width="100" height="100" rx="0" fill="url(#bg)"/>
  <rect width="100" height="100" rx="0" fill="url(#halo)"/>
  <g transform="translate(19.00 19.00) scale(0.62)"><g transform="translate(-4 -4)" stroke-linecap="round" stroke-linejoin="round" filter="url(#glow)"><path d="M33 64V34c0-7.5 5-12.5 12-12.5 4.5 0 8 2.3 10 6L66.5 59c2 3.7 5.5 6 9.5 6c5.3 0 8-4 8-10V31" fill="none" stroke="url(#nx)" stroke-width="12"/><path d="M71.5 34H96.5L84 17Z" fill="url(#nx)" stroke="url(#nx)" stroke-width="3"/><path d="M38 69.5c-1.9-3.7-5.6-5.7-10.1-5.7-5.7 0-9.5 3-9.5 7.1 0 4.3 3.8 6.1 9.5 7 5.7.9 10.1 3 10.1 7.4 0 4.4-4.2 7.4-10.1 7.4-4.8 0-8.6-2-10.5-5.9" fill="none" stroke="#fff" stroke-width="6.2"/><path d="M28 55v9M28 92v7" fill="none" stroke="#fff" stroke-width="5.2"/></g></g>
</svg>
